# xmcd CD database file
#
# Track frame offsets:
#	182
#	12432
#	26975
#	38435
#	51697
#	66470
#	79577
#	94475
#	107437
#	118667
#	131187
#	141857
#	151977
#	167127
#	180847
#	190717
#	199365
#	212492
#	224102
#	236022
#
# Disc length: 3292 seconds
#
# Revision: 5
# Processed by: cddbd v1.5.2PL0 Copyright (c) Steve Scherf et al.
# Submitted via: CDex 1.97
#
DISCID=2b0cda14
DTITLE=Various Artist - The Country Box - Disc One
DYEAR=1996
DGENRE=Country
TTITLE0=Crystal Gayle - Don't It Make My Brown Eyes Blue
TTITLE1=Roger Miller - Me And Bobby Mcgee
TTITLE2=Patsy Cline - Walkin' After Midnight
TTITLE3=Kenny Rogers - Ruby Dont Take Your Love To Town
TTITLE4=Billie Jo Spears - Midnight Love
TTITLE5=Don Williams - Where Do We Go From Here
TTITLE6=Jeannie C. Riley - Harper Valley PTA
TTITLE7=Johnny Darrell - The Son Of Hickory Holler's Tramp
TTITLE8=The Kendalls - Heaven's Just A Sin Away
TTITLE9=Johnny Cash - I Still Miss Someone
TTITLE10=Patsy Cline - I Can See An Angel
TTITLE11=Carl Perkins - Daddy Sang Bass
TTITLE12=Billie Jo Spears - Blanket On The Ground
TTITLE13=Charley Pride - Can't Stop The Mississippi
TTITLE14=Wanda Jackson - I Fall To Pieces
TTITLE15=Waylon Jennings - Love's Gonna Live Here
TTITLE16=Crystal Gayle - Break My Mind
TTITLE17=Charlie Rich - You Don't Know Me
TTITLE18=Billie Jo Spears - Misty Blue
TTITLE19=Roger Miller - King Of The Road
EXTD=YEAR: 1996
EXTT0=CRYSTAL GAYLE\n
EXTT1=ROGER MILLER\n
EXTT2=PATSY CLINE\n
EXTT3=KENNY ROGERS\n
EXTT4=BILLIE JO SPEARS\n
EXTT5=DON WILLIAMS\n
EXTT6=JEANNIE C.RILEY\n
EXTT7=JOHNNY DARRELL\n
EXTT8=THE KENDALLS\n
EXTT9=JOHNNY CASH\n
EXTT10=PATSY CLINE\n
EXTT11=CARL PERKINS\n
EXTT12=BILLIE JO SPEARS\n
EXTT13=CHARLEY PRIDE\n
EXTT14=WANDA JACKSON\n
EXTT15=WAYLON JENNINGS\n
EXTT16=CRYSTAL GAYLE\n
EXTT17=CHARLIE RICH\n
EXTT18=BILLIE JO SPEARS\n
EXTT19=ROGER MILLER\n
PLAYORDER=
